<svg id="svg" version="1.1" xmlns="http://www.w3.org/2000/svg" width="100" height="100" viewBox="0, 0, 100, 100">
    <path id="hand" fill="#4829B2" stroke="#4829B2"
        d="M39.9427 20.185C37.1347 20.6928 35.0662 22.8038 34.606 25.6318C34.5225 26.1438 34.5085 28.266 34.5082 40.3445C34.508 55.6987 34.5318 54.7058 34.1557 55.1085C33.5705 55.7353 32.8855 55.5793 32.0763 54.6352C28.8987 50.9278 25.915 49.1557 23.263 49.401C18.484 49.8425 17.0783 53.49 19.4312 59.3417C22.8208 67.7712 29.0685 78.7313 33.607 84.2087C38.1285 89.6658 39.335 92.0138 39.5528 95.7785C39.6193 96.9275 39.8028 97.3175 40.38 97.5357C40.7172 97.663 73.4135 97.632 73.7198 97.504C74.4145 97.2138 74.4802 97.0065 74.5408 94.9135C74.6765 90.2115 75.1278 87.5148 77.1603 79.2553C78.8535 72.3743 79.3355 69.7433 79.6947 65.4195C79.8342 63.738 79.9103 53.9113 79.7922 52.7843C79.3358 48.4237 75.4435 45.8227 71.1102 46.9823C69.5795 47.392 69.31 47.2685 68.8033 45.9258C67.3178 41.9888 62.7465 40.1305 59.4397 42.119C58.6168 42.614 58.0765 42.5007 57.5498 41.7227C55.8595 39.2257 52.901 38.15 50.133 39.0265C49.2617 39.3023 48.9385 39.278 48.5138 38.905C48.1568 38.5915 48.1743 38.9117 48.1367 32.0478L48.1018 25.6983 47.9205 25.0332C46.9627 21.5205 43.6598 19.513 39.9427 20.185M42.2208 23.1758C43.4993 23.5542 44.379 24.4537 44.801 25.8133C44.8995 26.1305 44.913 27.3545 44.9447 38.7965C44.9825 52.3375 44.9607 51.5388 45.3043 51.918C45.767 52.4288 46.835 52.4588 47.3845 51.9763C47.844 51.5727 47.833 51.6638 47.8762 47.9387C47.9185 44.288 47.908 44.388 48.3278 43.584C49.6805 40.992 53.8522 41.053 55.1427 43.6835C55.5745 44.5637 55.585 44.7043 55.585 49.5757C55.585 54.2743 55.5795 54.1932 55.9372 54.5765C56.533 55.2145 57.892 55.068 58.3103 54.321L58.4775 54.0225 58.513 50.665C58.553 46.879 58.5538 46.8747 59.0977 46.039C60.4093 44.0255 63.4115 43.7293 65.1278 45.4442C66.201 46.517 66.2235 46.652 66.2235 52.0808C66.2235 56.7792 66.2242 56.7908 66.5648 57.204C67.0337 57.7728 68.2127 57.8002 68.7578 57.2552C69.115 56.898 69.148 56.6905 69.1497 54.7873C69.1508 53.5508 69.1778 52.9663 69.2495 52.6283C70.0653 48.7767 75.757 48.6277 76.7302 52.4325C76.8803 53.019 76.9295 62.1395 76.7938 64.1955C76.5635 67.6857 76.015 70.8863 74.8222 75.6983C74.2493 78.01 73.1215 82.899 72.7823 84.5413C72.1025 87.8323 71.7813 90.0435 71.6035 92.653C71.507 94.0722 71.4005 94.3252 70.7943 94.5785C70.4778 94.7108 43.472 94.7368 43.0785 94.6052C42.5313 94.4225 42.3443 94.1047 42.1645 93.0515C41.6613 90.1058 40.3272 87.8535 36.848 84.0757C36.4205 83.6118 34.031 80.5272 33.2683 79.4548C29.9548 74.7965 24.472 64.728 22.1715 59.0757C20.596 55.2052 20.6185 53.0808 22.2413 52.4973C22.7395 52.318 23.998 52.2777 24.5072 52.425C27.2767 53.225 31.73 58.5155 33.919 63.606L34.201 64.262 34.2413 65.7913C34.2782 67.1988 34.2933 67.343 34.4293 67.603C34.872 68.449 36.4297 68.5277 36.9575 67.7305L37.1343 67.4633 37.1677 46.8132C37.2047 23.8412 37.1595 25.938 37.6405 24.9853C38.4117 23.4575 40.451 22.6517 42.2208 23.1758" />
    <path id="click" fill="#F6B330"
        d="M39.5613 3.1645C39.4333 3.1795 39.0292 3.224 38.6635 3.2633C30.646 4.123 23.5875 9.6067 20.6977 17.2207C17.0875 26.7333 20.2952 37.4278 28.5123 43.274C30.4488 44.6517 31.185 44.8118 31.8758 44.0048C32.6397 43.1125 32.3155 42.3635 30.7172 41.3295C25.0545 37.6653 21.673 30.941 22.0795 24.153C22.9088 10.3115 37.2882 1.8275 49.5345 7.9547C59.5343 12.9578 63.1508 25.4462 57.4098 35.1493C56.7762 36.22 56.9102 37.0568 57.787 37.504C58.9012 38.0725 59.7717 37.1962 61.094 34.1755C67.4365 19.6875 57.1185 3.3925 41.456 3.1615C40.542 3.148 39.6893 3.1495 39.5613 3.1645M39.8272 11.4782C39.7358 11.4915 39.3915 11.5358 39.0625 11.577C32.0465 12.4512 26.641 18.8145 26.6427 26.1968C26.6435 29.6178 28.1492 34.0335 29.4898 34.5455C30.8075 35.0487 31.84 33.707 31.1388 32.4025C29.8422 29.9895 29.3938 28.209 29.4725 25.7883C29.7752 16.4943 39.9025 11.1105 47.4802 16.2153C52.295 19.4587 54.0513 25.6193 51.7227 31.097C50.7773 33.3215 53.2338 34.5318 54.26 32.347C57.0485 26.4108 55.2878 18.81 50.1662 14.6753C47.2612 12.33 43.0168 11.0175 39.8272 11.4782" />
    <circle id="coin" cx="55" cy="76" r="14" fill="#F6B330" />    
</svg>